<?xml version="1.0" encoding="utf-8"?>
<!-- Generator: Adobe Illustrator 17.0.0, SVG Export Plug-In . SVG Version: 6.00 Build 0)  -->
<!DOCTYPE svg PUBLIC "-//W3C//DTD SVG 1.1//EN" "http://www.w3.org/Graphics/SVG/1.1/DTD/svg11.dtd">
<svg version="1.1" id="Layer_1" xmlns="http://www.w3.org/2000/svg" xmlns:xlink="http://www.w3.org/1999/xlink" x="0px" y="0px"
	 width="140px" height="32.498px" viewBox="0 0 140 32.498" enable-background="new 0 0 140 32.498" xml:space="preserve">
<g>
	<path fill-rule="evenodd" clip-rule="evenodd" fill="#FFFFFF" d="M11.06,0c1.258,0,2.911,0.313,4.951,0.932
		c0.244,0.076,0.438,0.113,0.582,0.113c0.125,0,0.494-0.113,1.102-0.332c0.2-0.075,0.407-0.106,0.626-0.106
		c0.82,0,1.684,0.645,2.591,1.94c0.914,1.295,1.371,2.528,1.371,3.705c0,0.682-0.207,1.264-0.614,1.734
		c-0.413,0.47-0.908,0.707-1.496,0.707c-0.488,0-0.889-0.1-1.195-0.294c-0.3-0.2-0.977-0.776-2.016-1.746
		c-1.465-1.365-2.911-2.053-4.325-2.053c-0.688,0-1.233,0.169-1.646,0.495c-0.407,0.332-0.614,0.763-0.614,1.302
		c0,1.064,0.939,1.865,2.81,2.403c2.529,0.745,4.15,1.289,4.857,1.634c3.117,1.515,4.676,3.75,4.676,6.691
		c0,2.604-1.064,4.732-3.192,6.384c-2.172,1.684-5.02,2.529-8.525,2.529c-1.565,0-3.217-0.188-4.951-0.557
		c-1.734-0.376-2.992-0.814-3.762-1.315c-0.582-0.388-1.114-1.239-1.584-2.554C0.238,20.299,0,19.016,0,17.77
		c0-0.601,0.125-1.052,0.369-1.358c0.306-0.388,0.688-0.588,1.152-0.588c0.47,0,0.914,0.238,1.339,0.72
		c0.257,0.263,0.864,1.127,1.815,2.585c0.45,0.682,1.17,1.251,2.153,1.702c0.989,0.451,2.003,0.676,3.055,0.676
		c0.908,0,1.64-0.163,2.203-0.501c0.563-0.338,0.845-0.77,0.845-1.295c0-0.488-0.225-0.908-0.663-1.264
		c-0.438-0.351-1.152-0.682-2.147-0.989c-1.746-0.551-3.079-1.052-3.993-1.515c-0.92-0.457-1.778-1.033-2.572-1.734
		C1.627,12.5,0.664,10.553,0.664,8.381c0-1.076,0.25-2.128,0.751-3.149c0.501-1.02,1.208-1.903,2.128-2.648
		C5.596,0.864,8.099,0,11.06,0z"/>
	<path fill-rule="evenodd" clip-rule="evenodd" fill="#FFFFFF" d="M55.85,8.525v8.419c0,1.896,0.163,3.117,0.494,3.668
		c0.407,0.645,1.252,0.97,2.548,0.97c1.396,0,2.497-0.307,3.305-0.914c0.807-0.614,1.365-1.565,1.684-2.861
		c0.181-0.795,0.601-1.195,1.245-1.195c0.651,0,1.177,0.294,1.59,0.87c0.407,0.582,0.613,1.339,0.613,2.266
		c0,1.515-0.563,3.136-1.69,4.864c-0.35,0.544-0.663,0.926-0.932,1.127c-0.269,0.2-0.595,0.301-0.97,0.301l-4.075-0.495H46.849
		c-0.845,0-1.439-0.1-1.784-0.294c-0.501-0.282-0.751-0.701-0.751-1.264c0-0.344,0.081-0.595,0.251-0.763
		c0.162-0.163,0.563-0.401,1.202-0.701c0.694-0.332,1.139-0.795,1.339-1.396c0.157-0.501,0.238-1.966,0.238-4.382
		c0-1.126-0.031-2.747-0.094-4.863c-0.063-2.028-0.1-3.555-0.113-4.582c0-0.977-0.075-1.646-0.225-2.009
		c-0.157-0.357-0.476-0.62-0.964-0.776c-0.807-0.282-1.321-0.507-1.54-0.682C44.014,3.524,43.82,3.18,43.82,2.786
		c0-0.889,0.739-1.571,2.222-2.034c1.258-0.401,2.942-0.607,5.058-0.607c2.372,0,4.144,0.125,5.32,0.369
		c1.515,0.332,2.272,0.989,2.272,1.978c0,0.407-0.1,0.707-0.301,0.901c-0.2,0.194-0.695,0.457-1.477,0.789
		c-0.463,0.206-0.757,0.563-0.883,1.064C55.913,5.746,55.85,6.842,55.85,8.525z"/>
	<path fill-rule="evenodd" clip-rule="evenodd" fill="#FFFFFF" d="M104.878,17.952l-2.203,4.933
		c-0.382,0.833-0.682,1.389-0.914,1.677c-0.238,0.288-0.494,0.432-0.776,0.432c-0.263,0-0.507-0.113-0.714-0.351
		c-0.131-0.144-0.444-0.682-0.926-1.608c-0.482-0.932-0.882-1.759-1.202-2.479l-2.416-5.445c-0.332-0.758-0.682-1.139-1.045-1.139
		c-0.395,0-0.607,0.326-0.645,0.977c-0.088,1.439-0.125,2.773-0.125,3.993c0,1.271,0.056,2.134,0.181,2.585
		c0.088,0.269,0.201,0.47,0.338,0.588c0.144,0.125,0.526,0.344,1.145,0.664c0.407,0.207,0.607,0.564,0.607,1.077
		c0,1.371-1.752,2.059-5.264,2.059c-2.961,0-4.438-0.67-4.438-2.003c0-0.338,0.075-0.588,0.232-0.739
		c0.15-0.157,0.545-0.382,1.183-0.689c0.4-0.188,0.676-0.438,0.814-0.751c0.144-0.319,0.263-0.939,0.357-1.853
		c0.113-0.982,0.213-2.585,0.313-4.813c0.1-2.235,0.144-4.144,0.144-5.733c0-1.991-0.15-3.343-0.457-4.05
		c-0.107-0.244-0.232-0.432-0.376-0.551c-0.138-0.125-0.407-0.282-0.795-0.476c-0.87-0.42-1.302-0.958-1.302-1.615
		c0-0.432,0.163-0.82,0.482-1.177c0.325-0.35,0.757-0.601,1.296-0.751c0.538-0.156,1.258-0.294,2.153-0.413
		c0.901-0.113,1.659-0.175,2.285-0.175c1.565,0,2.673,0.132,3.317,0.388c0.319,0.119,0.57,0.288,0.751,0.495
		c0.188,0.206,0.451,0.638,0.789,1.283l3.818,7.023c0.413,0.77,0.701,1.24,0.857,1.415c0.163,0.169,0.382,0.257,0.663,0.257
		c0.244,0,0.457-0.094,0.651-0.275c0.188-0.182,0.413-0.526,0.67-1.026l2.585-5.045c0.319-0.645,0.526-1.07,0.619-1.264
		c0.601-1.221,1.196-2.034,1.784-2.441c0.745-0.525,2.103-0.788,4.069-0.788c3.461,0,5.189,0.788,5.189,2.366
		c0,0.357-0.069,0.639-0.2,0.858c-0.138,0.213-0.413,0.469-0.826,0.776c-0.564,0.425-0.914,1.045-1.064,1.853
		c-0.282,1.684-0.419,3.743-0.419,6.159c0,3.117,0.144,5.852,0.438,8.2c0.075,0.576,0.188,0.964,0.338,1.17
		c0.157,0.213,0.551,0.52,1.183,0.939c0.438,0.294,0.663,0.682,0.663,1.17c0,0.857-0.569,1.465-1.709,1.815
		c-0.588,0.201-1.202,0.326-1.853,0.388c-0.645,0.063-1.64,0.094-2.986,0.094c-2.066,0-3.605-0.15-4.625-0.444
		c-1.12-0.332-1.684-0.889-1.684-1.684c0-0.294,0.075-0.538,0.219-0.726c0.15-0.188,0.525-0.532,1.139-1.039
		c0.319-0.256,0.532-0.751,0.651-1.483c0.113-0.732,0.175-1.978,0.175-3.743c0-0.977-0.05-1.615-0.138-1.922
		c-0.094-0.307-0.288-0.457-0.582-0.457c-0.338,0-0.669,0.231-0.989,0.701C105.986,15.611,105.51,16.543,104.878,17.952z"/>
	<path fill-rule="evenodd" clip-rule="evenodd" fill="#3B5A9A" d="M27.648,24.599l-4.145,1.986l2.27-4.023
		c-1.156-1.658-1.835-3.674-1.835-5.849c0-5.654,4.583-10.237,10.237-10.237s10.237,4.583,10.237,10.237
		c0,5.654-4.583,10.237-10.237,10.237C31.693,26.949,29.419,26.066,27.648,24.599L27.648,24.599z M34.174,10.679
		c-3.332,0-6.033,2.701-6.033,6.033s2.701,6.033,6.033,6.033s6.033-2.701,6.033-6.033S37.506,10.679,34.174,10.679z"/>
	<path fill-rule="evenodd" clip-rule="evenodd" fill="#FDCF09" d="M77.302,6.556c4.953,0,8.968,4.015,8.968,8.967
		c0,0.546-0.049,1.08-0.142,1.598c-0.592,3.291-7.186,12.031-9.275,15.376c-1.942-3.513-7.957-12.354-8.429-15.715
		c-0.058-0.411-0.088-0.832-0.088-1.259C68.335,10.57,72.349,6.556,77.302,6.556L77.302,6.556z M77.302,9.33
		c-3.288,0-5.953,2.665-5.953,5.953c0,3.288,2.665,5.953,5.953,5.953c3.288,0,5.953-2.665,5.953-5.953
		C83.255,11.995,80.59,9.33,77.302,9.33z"/>
	<path fill-rule="evenodd" clip-rule="evenodd" fill="#8CC63F" d="M129.763,6.459c5.654,0,10.237,4.584,10.237,10.237
		c0,5.654-4.584,10.237-10.237,10.237c-5.654,0-10.237-4.583-10.237-10.237C119.525,11.043,124.109,6.459,129.763,6.459
		L129.763,6.459z M127.731,13.696c-2.748,0-4.976,2.228-4.976,4.976c0,2.748,2.228,4.976,4.976,4.976
		c2.748,0,4.976-2.228,4.976-4.976C132.707,15.923,130.479,13.696,127.731,13.696z"/>
	<path fill-rule="evenodd" clip-rule="evenodd" fill="#FEFEFE" d="M129.763,7.305c2.593,0,4.941,1.051,6.64,2.75
		c1.7,1.699,2.751,4.047,2.751,6.64h-1.255c0-2.246-0.911-4.281-2.383-5.753s-3.506-2.383-5.753-2.383V7.305L129.763,7.305z
		 M137.237,16.696c0-2.064-0.837-3.933-2.189-5.285c-1.352-1.353-3.221-2.189-5.285-2.189v1.255c1.718,0,3.272,0.696,4.398,1.821
		c1.125,1.125,1.821,2.68,1.821,4.398H137.237L137.237,16.696z M135.32,16.696c0-1.535-0.622-2.925-1.627-3.93
		c-1.005-1.006-2.395-1.627-3.93-1.627v1.255c1.188,0,2.264,0.481,3.043,1.26c0.778,0.778,1.26,1.854,1.26,3.043H135.32z"/>
</g>
</svg>
